<?xml version="1.0" standalone="no"?>
<!DOCTYPE svg PUBLIC "-//W3C//DTD SVG 20010904//EN"
 "http://www.w3.org/TR/2001/REC-SVG-20010904/DTD/svg10.dtd">
<svg version="1.0" xmlns="http://www.w3.org/2000/svg"
 width="260.000000pt" height="260.000000pt" viewBox="0 0 260.000000 260.000000"
 preserveAspectRatio="xMidYMid meet">
<metadata>
Created by potrace 1.14, written by Peter Selinger 2001-2017
</metadata>
<g transform="translate(0.000000,260.000000) scale(0.100000,-0.100000)"
fill="#000000" stroke="none">
<path d="M293 2414 c-112 -29 -202 -105 -256 -213 l-32 -66 0 -840 0 -840 34
-67 c36 -73 103 -144 167 -176 89 -45 93 -45 844 -47 393 0 740 3 770 7 139
18 259 115 312 250 20 51 21 72 22 567 l1 513 181 0 c219 -1 229 2 230 73 1
65 -37 176 -78 230 -33 44 -98 83 -173 106 -92 28 -155 94 -162 170 -13 155
-134 292 -295 335 -72 19 -1492 17 -1565 -2z"/>
</g>
</svg>
